<svg width="21" height="21" viewBox="0 0 21 21" fill="none" xmlns="http://www.w3.org/2000/svg">
<path d="M1 1H2.96786C3.71781 1 4.09279 1 4.36405 1.21179C4.63531 1.42359 4.72625 1.78737 4.90814 2.51493L5.13521 3.42319C5.31801 4.15439 5.40941 4.51998 5.59554 4.8035C5.83694 5.1712 6.19282 5.44906 6.60809 5.59407C6.92828 5.70588 7.30513 5.70588 8.05882 5.70588V5.70588" stroke="white" stroke-width="2" stroke-linecap="round"/>
<path d="M17.4704 16.2941H5.17738C4.7858 16.2941 4.59001 16.2941 4.44644 16.25C4.01834 16.1184 3.72993 15.7182 3.74049 15.2705C3.74403 15.1204 3.80594 14.9346 3.92977 14.5631V14.5631C4.06715 14.151 4.13584 13.9449 4.23368 13.7735C4.52072 13.2704 5.01174 12.9165 5.57974 12.8033C5.77335 12.7647 5.99056 12.7647 6.42499 12.7647H12.7645" stroke="white" stroke-width="2" stroke-linecap="round" stroke-linejoin="round"/>
<path d="M15.0579 12.7647H7.40002C6.42234 12.7647 5.58796 12.0579 5.42723 11.0935L4.8204 7.4525C4.66801 6.5382 5.37308 5.7059 6.29999 5.7059H18.2054C18.9488 5.7059 19.4323 6.48821 19.0998 7.15312L16.8468 11.6592C16.508 12.3367 15.8155 12.7647 15.0579 12.7647Z" fill="white" stroke="white" stroke-width="2" stroke-linecap="round"/>
<circle cx="16.2939" cy="19.8235" r="1.17647" fill="white"/>
<circle cx="6.88228" cy="19.8235" r="1.17647" fill="white"/>
</svg>
