<svg width="109" height="36" viewBox="0 0 109 36" fill="none" xmlns="http://www.w3.org/2000/svg">
    <path d="M15.768 24.948C15.75 25.254 15.705 25.578 15.633 25.92C15.579 26.262 15.408 26.541 15.12 26.757C14.904 26.937 14.661 27.045 14.391 27.081C14.121 27.117 13.851 27.099 13.581 27.027C13.329 26.973 13.086 26.883 12.852 26.757C12.618 26.613 12.429 26.442 12.285 26.244C11.673 25.488 11.106 24.714 10.584 23.922C10.08 23.112 9.567 22.302 9.045 21.492L6.777 18.063C6.471 17.577 6.147 17.037 5.805 16.443C5.463 15.831 5.112 15.264 4.752 14.742L4.671 25.056V25.299C4.671 25.587 4.617 25.875 4.509 26.163C4.419 26.433 4.257 26.667 4.023 26.865C3.843 27.009 3.609 27.108 3.321 27.162C2.871 27.252 2.493 27.225 2.187 27.081C1.899 26.937 1.665 26.739 1.485 26.487C1.323 26.235 1.206 25.947 1.134 25.623C1.08 25.281 1.071 24.948 1.107 24.624V24.165L1.161 22.059L1.188 18.144C1.206 17.568 1.215 16.983 1.215 16.389C1.215 15.777 1.215 15.156 1.215 14.526C1.197 13.752 1.197 12.933 1.215 12.069C1.251 11.205 1.287 10.395 1.323 9.639C1.359 9.225 1.458 8.874 1.62 8.586C1.692 8.334 1.881 8.118 2.187 7.938C2.385 7.812 2.637 7.731 2.943 7.695C3.267 7.659 3.546 7.668 3.78 7.722C3.87 7.758 3.96 7.803 4.05 7.857C4.14 7.893 4.23 7.938 4.32 7.992C4.41 8.064 4.491 8.136 4.563 8.208C4.653 8.28 4.734 8.361 4.806 8.451C4.896 8.541 4.977 8.64 5.049 8.748C5.121 8.838 5.193 8.928 5.265 9.018C5.319 9.126 5.373 9.225 5.427 9.315C5.481 9.405 5.544 9.495 5.616 9.585L5.913 10.017L12.15 19.845V18.063C12.15 17.487 12.141 16.902 12.123 16.308C12.123 15.696 12.114 15.066 12.096 14.418C12.096 13.662 12.096 12.852 12.096 11.988C12.114 11.124 12.141 10.314 12.177 9.558C12.177 9.252 12.267 8.901 12.447 8.505C12.537 8.271 12.69 8.082 12.906 7.938C13.122 7.794 13.365 7.695 13.635 7.641C13.905 7.587 14.175 7.587 14.445 7.641C14.715 7.695 14.949 7.803 15.147 7.965C15.201 8.019 15.255 8.082 15.309 8.154C15.363 8.226 15.408 8.307 15.444 8.397C15.534 8.631 15.588 8.838 15.606 9.018C15.66 9.27 15.687 9.495 15.687 9.693C15.687 11.943 15.687 14.238 15.687 16.578C15.705 18.918 15.723 21.213 15.741 23.463C15.741 23.715 15.75 23.967 15.768 24.219C15.786 24.453 15.786 24.696 15.768 24.948ZM29.6584 20.574C29.6224 21.168 29.5864 21.771 29.5504 22.383C29.5144 22.977 29.4154 23.553 29.2534 24.111C29.1094 24.669 28.8754 25.173 28.5514 25.623C28.2454 26.073 27.8044 26.433 27.2284 26.703C26.7244 26.955 26.1844 27.126 25.6084 27.216C25.0324 27.324 24.4564 27.369 23.8804 27.351C23.3044 27.333 22.7464 27.243 22.2064 27.081C21.6664 26.937 21.1804 26.73 20.7484 26.46C20.3164 26.19 19.9654 25.839 19.6954 25.407C19.4254 24.975 19.2094 24.507 19.0474 24.003C18.9034 23.499 18.8044 22.977 18.7504 22.437C18.6964 21.897 18.6604 21.393 18.6424 20.925C18.5704 19.683 18.5704 18.459 18.6424 17.253C18.6424 17.019 18.6424 16.758 18.6424 16.47C18.6424 16.164 18.6604 15.867 18.6964 15.579C18.7504 15.291 18.8314 15.03 18.9394 14.796C19.0474 14.544 19.2274 14.355 19.4794 14.229C20.0194 13.941 20.5144 13.923 20.9644 14.175C21.4324 14.427 21.7114 14.949 21.8014 15.741C21.8554 16.155 21.8734 16.614 21.8554 17.118C21.8554 17.622 21.8734 18.081 21.9094 18.495C21.9274 19.107 21.9454 19.773 21.9634 20.493C21.9814 21.195 22.0804 21.825 22.2604 22.383C22.4584 22.941 22.7734 23.364 23.2054 23.652C23.6554 23.922 24.3214 23.931 25.2034 23.679C25.6174 23.553 25.8874 23.238 26.0134 22.734C26.1574 22.23 26.2294 21.483 26.2294 20.493C26.2294 20.061 26.2204 19.584 26.2024 19.062C26.1844 18.54 26.1754 18.027 26.1754 17.523C26.1754 17.001 26.1844 16.524 26.2024 16.092C26.2384 15.642 26.2924 15.3 26.3644 15.066C26.4544 14.742 26.6434 14.499 26.9314 14.337C27.2194 14.175 27.5254 14.094 27.8494 14.094C28.1734 14.076 28.4794 14.139 28.7674 14.283C29.0554 14.427 29.2534 14.661 29.3614 14.985C29.4694 15.273 29.5414 15.642 29.5774 16.092C29.6314 16.524 29.6674 17.001 29.6854 17.523C29.7034 18.027 29.7034 18.549 29.6854 19.089C29.6854 19.611 29.6764 20.106 29.6584 20.574ZM42.8258 15.093C42.9698 15.435 42.9788 15.813 42.8528 16.227C42.7448 16.641 42.5378 16.911 42.2318 17.037C42.0698 17.109 41.8538 17.172 41.5838 17.226C41.3138 17.262 41.0168 17.298 40.6928 17.334C40.3868 17.37 40.0808 17.397 39.7748 17.415C39.4688 17.433 39.2078 17.442 38.9918 17.442C39.0098 17.982 39.0278 18.54 39.0458 19.116C39.0638 19.674 39.0818 20.223 39.0998 20.763C39.1178 21.303 39.1268 21.825 39.1268 22.329C39.1268 22.815 39.1178 23.256 39.0998 23.652C39.0998 23.922 39.0998 24.237 39.0998 24.597C39.0998 24.939 39.0728 25.272 39.0188 25.596C38.9828 25.92 38.9198 26.208 38.8298 26.46C38.7398 26.694 38.6048 26.847 38.4248 26.919C37.8668 27.153 37.3538 27.216 36.8858 27.108C36.4358 27.018 36.1118 26.829 35.9138 26.541C35.7698 26.307 35.6618 26.037 35.5898 25.731C35.5178 25.407 35.4638 25.083 35.4278 24.759C35.4098 24.417 35.4008 24.093 35.4008 23.787C35.4188 23.463 35.4278 23.184 35.4278 22.95C35.4458 22.194 35.4548 21.339 35.4548 20.385C35.4728 19.413 35.4818 18.441 35.4818 17.469H35.0768C34.8608 17.469 34.5818 17.469 34.2398 17.469C33.9158 17.451 33.5828 17.424 33.2408 17.388C32.9168 17.334 32.6108 17.271 32.3228 17.199C32.0348 17.109 31.8278 16.983 31.7018 16.821C31.5038 16.587 31.3778 16.335 31.3238 16.065C31.2878 15.795 31.3058 15.543 31.3778 15.309C31.4678 15.057 31.6028 14.841 31.7828 14.661C31.9628 14.463 32.1698 14.337 32.4038 14.283C32.7278 14.193 33.1868 14.148 33.7808 14.148C34.3748 14.13 34.9328 14.13 35.4548 14.148C35.4368 13.968 35.4278 13.797 35.4278 13.635C35.4278 13.455 35.4188 13.284 35.4008 13.122C35.3828 12.906 35.3738 12.636 35.3738 12.312C35.3738 11.97 35.3918 11.637 35.4278 11.313C35.4818 10.971 35.5628 10.656 35.6708 10.368C35.7788 10.062 35.9318 9.828 36.1298 9.666C36.3998 9.45 36.6698 9.333 36.9398 9.315C37.2278 9.279 37.4888 9.315 37.7228 9.423C37.9748 9.531 38.1818 9.693 38.3438 9.909C38.5238 10.107 38.6498 10.332 38.7218 10.584C38.7758 10.8 38.8208 11.061 38.8568 11.367C38.8928 11.655 38.9108 11.961 38.9108 12.285C38.9288 12.609 38.9378 12.933 38.9378 13.257C38.9378 13.581 38.9378 13.878 38.9378 14.148H39.2078C39.4778 14.148 39.7928 14.139 40.1528 14.121C40.5128 14.103 40.8638 14.112 41.2058 14.148C41.5658 14.184 41.8898 14.274 42.1778 14.418C42.4658 14.544 42.6818 14.769 42.8258 15.093ZM66.1129 19.143C66.2029 19.395 66.2659 19.683 66.3019 20.007C66.3559 20.313 66.3829 20.628 66.3829 20.952C66.3829 21.276 66.3559 21.6 66.3019 21.924C66.2659 22.23 66.2119 22.5 66.1399 22.734C65.8519 23.742 65.2759 24.588 64.4119 25.272C63.5479 25.938 62.5579 26.424 61.4419 26.73C60.3439 27.036 59.2009 27.144 58.0129 27.054C56.8429 26.964 55.7989 26.667 54.8809 26.163C54.3049 25.839 53.8099 25.443 53.3959 24.975C52.9819 24.507 52.6309 23.985 52.3429 23.409C52.2349 23.211 52.1629 22.986 52.1269 22.734C52.1089 22.464 52.1359 22.212 52.2079 21.978C52.2799 21.726 52.3969 21.51 52.5589 21.33C52.7209 21.132 52.9459 20.997 53.2339 20.925C53.4139 20.889 53.6119 20.871 53.8279 20.871C54.0619 20.871 54.2869 20.907 54.5029 20.979C54.7189 21.033 54.9169 21.132 55.0969 21.276C55.2769 21.402 55.4209 21.582 55.5289 21.816C55.7269 22.194 56.0059 22.545 56.3659 22.869C56.7439 23.175 57.1399 23.427 57.5539 23.625C58.1479 23.823 58.7419 23.904 59.3359 23.868C59.9479 23.832 60.4969 23.697 60.9829 23.463C61.4869 23.229 61.8919 22.914 62.1979 22.518C62.5039 22.104 62.6569 21.636 62.6569 21.114C62.6569 20.682 62.5939 20.331 62.4679 20.061C62.3419 19.773 62.1619 19.539 61.9279 19.359C61.7119 19.161 61.4419 18.999 61.1179 18.873C60.8119 18.747 60.4699 18.639 60.0919 18.549C59.6599 18.459 59.2189 18.396 58.7689 18.36C58.3369 18.324 57.8959 18.279 57.4459 18.225C56.9959 18.171 56.5549 18.099 56.1229 18.009C55.6909 17.919 55.2679 17.784 54.8539 17.604C54.0259 17.262 53.3959 16.74 52.9639 16.038C52.5319 15.336 52.2709 14.58 52.1809 13.77C52.1089 12.96 52.2079 12.159 52.4779 11.367C52.7479 10.557 53.1799 9.864 53.7739 9.288C54.3499 8.766 55.0339 8.397 55.8259 8.181C56.6359 7.947 57.5269 7.812 58.4989 7.776C59.0389 7.758 59.5789 7.776 60.1189 7.83C60.6769 7.884 61.2079 7.974 61.7119 8.1C62.2339 8.226 62.7109 8.388 63.1429 8.586C63.5929 8.784 63.9799 9.018 64.3039 9.288C64.5379 9.468 64.7719 9.711 65.0059 10.017C65.2399 10.305 65.4199 10.62 65.5459 10.962C65.6719 11.286 65.7079 11.601 65.6539 11.907C65.6179 12.213 65.4289 12.474 65.0869 12.69C64.7989 12.87 64.5199 12.951 64.2499 12.933C63.9979 12.897 63.7549 12.816 63.5209 12.69C63.2869 12.546 63.0619 12.384 62.8459 12.204C62.6299 12.024 62.4319 11.862 62.2519 11.718C61.7659 11.358 61.1629 11.115 60.4429 10.989C59.7229 10.863 59.0479 10.836 58.4179 10.908C58.0219 10.962 57.6529 11.052 57.3109 11.178C56.9689 11.304 56.6719 11.475 56.4199 11.691C56.1859 11.907 55.9969 12.177 55.8529 12.501C55.7269 12.807 55.6819 13.158 55.7179 13.554C55.7359 13.842 55.8169 14.085 55.9609 14.283C56.1229 14.481 56.3119 14.643 56.5279 14.769C56.7619 14.895 57.0139 14.994 57.2839 15.066C57.5539 15.138 57.8239 15.192 58.0939 15.228C58.9039 15.336 59.7139 15.417 60.5239 15.471C61.3339 15.525 62.1259 15.705 62.8999 16.011C63.6919 16.317 64.3669 16.731 64.9249 17.253C65.4829 17.775 65.8789 18.405 66.1129 19.143ZM79.0836 21.681C79.1016 22.041 79.1106 22.419 79.1106 22.815C79.1106 23.193 79.1016 23.544 79.0836 23.868C79.0656 24.354 79.0386 24.804 79.0026 25.218C78.9666 25.614 78.8946 25.956 78.7866 26.244C78.6786 26.514 78.5076 26.721 78.2736 26.865C78.0576 26.991 77.7516 27.027 77.3556 26.973C76.9416 26.919 76.6446 26.721 76.4646 26.379C76.2846 26.037 76.1586 25.65 76.0866 25.218C76.0326 24.768 76.0146 24.318 76.0326 23.868C76.0506 23.418 76.0506 23.067 76.0326 22.815C76.0146 22.419 75.9966 21.969 75.9786 21.465C75.9786 20.943 75.9246 20.457 75.8166 20.007C75.7266 19.539 75.5646 19.143 75.3306 18.819C75.0966 18.495 74.7456 18.324 74.2776 18.306C73.6836 18.27 73.2246 18.315 72.9006 18.441C72.5946 18.567 72.3696 18.756 72.2256 19.008C72.0816 19.242 71.9916 19.53 71.9556 19.872C71.9376 20.214 71.9016 20.583 71.8476 20.979L71.8206 22.032V24.003C71.8206 24.327 71.8116 24.669 71.7936 25.029C71.7936 25.371 71.7396 25.686 71.6316 25.974C71.5236 26.262 71.3526 26.505 71.1186 26.703C70.9026 26.901 70.5786 27 70.1466 27C69.6066 27 69.2016 26.829 68.9316 26.487C68.6796 26.127 68.5536 25.686 68.5536 25.164V9.639C68.5536 9.531 68.5536 9.432 68.5536 9.342C68.5716 9.234 68.5896 9.126 68.6076 9.018C68.6436 8.91 68.6706 8.811 68.6886 8.721C68.7066 8.613 68.7336 8.514 68.7696 8.424C68.8236 8.244 68.9136 8.109 69.0396 8.019C69.1296 7.929 69.2196 7.857 69.3096 7.803C69.3996 7.749 69.4986 7.713 69.6066 7.695C69.6966 7.677 69.7956 7.668 69.9036 7.668C70.0116 7.65 70.1196 7.641 70.2276 7.641C70.4976 7.641 70.7586 7.722 71.0106 7.884C71.1186 7.956 71.2176 8.037 71.3076 8.127C71.3976 8.199 71.4696 8.307 71.5236 8.451C71.6676 8.793 71.7396 9.117 71.7396 9.423C71.7576 9.513 71.7666 9.648 71.7666 9.828C71.7846 9.99 71.7936 10.161 71.7936 10.341C71.7936 10.521 71.7936 10.701 71.7936 10.881C71.8116 11.043 71.8206 11.169 71.8206 11.259V11.394C71.8386 11.97 71.8476 12.555 71.8476 13.149C71.8476 13.743 71.8476 14.346 71.8476 14.958V15.417C72.6036 15.165 73.3956 15.048 74.2236 15.066C75.0516 15.066 75.7896 15.228 76.4376 15.552C77.1036 15.894 77.6076 16.281 77.9496 16.713C78.3096 17.145 78.5706 17.622 78.7326 18.144C78.8946 18.666 78.9846 19.224 79.0026 19.818C79.0386 20.412 79.0656 21.033 79.0836 21.681ZM84.7456 14.796C85.3396 14.508 85.9606 14.301 86.6086 14.175C87.2566 14.049 87.8956 14.022 88.5256 14.094C89.1736 14.166 89.7946 14.337 90.3886 14.607C91.0006 14.877 91.5586 15.255 92.0626 15.741C92.4766 16.155 92.8366 16.659 93.1426 17.253C93.4486 17.829 93.6736 18.396 93.8176 18.954C94.1236 19.944 94.1686 20.943 93.9526 21.951C93.7366 22.959 93.3676 23.895 92.8456 24.759C92.5936 25.155 92.2786 25.515 91.9006 25.839C91.5406 26.145 91.1536 26.397 90.7396 26.595C90.1996 26.847 89.6146 27.018 88.9846 27.108C88.3546 27.216 87.7426 27.243 87.1486 27.189C86.0686 27.135 85.1146 26.865 84.2866 26.379C83.4766 25.893 82.8196 25.272 82.3156 24.516C81.8296 23.76 81.5056 22.905 81.3436 21.951C81.1996 20.979 81.2626 19.989 81.5326 18.981C81.8206 17.901 82.2346 17.028 82.7746 16.362C83.3326 15.678 83.9896 15.156 84.7456 14.796ZM85.5556 18.414C85.2856 18.666 85.0786 18.981 84.9346 19.359C84.7906 19.737 84.7006 20.133 84.6646 20.547C84.6286 20.943 84.6556 21.348 84.7456 21.762C84.8536 22.158 85.0156 22.518 85.2316 22.842C85.4116 23.112 85.7356 23.337 86.2036 23.517C86.6716 23.697 87.1576 23.805 87.6616 23.841C88.2376 23.877 88.7416 23.724 89.1736 23.382C89.6056 23.022 89.9296 22.581 90.1456 22.059C90.3796 21.537 90.4876 20.97 90.4696 20.358C90.4516 19.746 90.2896 19.188 89.9836 18.684C89.7676 18.324 89.4616 18.063 89.0656 17.901C88.6876 17.721 88.2826 17.631 87.8506 17.631C87.4366 17.613 87.0226 17.676 86.6086 17.82C86.1946 17.946 85.8436 18.144 85.5556 18.414ZM103.799 14.85C104.321 15.066 104.798 15.381 105.23 15.795C105.662 16.191 106.031 16.65 106.337 17.172C106.661 17.694 106.904 18.261 107.066 18.873C107.246 19.467 107.336 20.07 107.336 20.682C107.354 21.6 107.138 22.464 106.688 23.274C106.256 24.084 105.545 24.705 104.555 25.137C103.799 25.443 103.016 25.677 102.206 25.839C101.414 25.983 100.586 26.082 99.7222 26.136V31.077C99.7222 31.185 99.7042 31.284 99.6682 31.374C99.6502 31.464 99.6412 31.554 99.6412 31.644C99.6052 31.824 99.5602 31.986 99.5062 32.13C99.4702 32.274 99.4162 32.427 99.3442 32.589C99.2722 32.697 99.2002 32.796 99.1282 32.886C99.0562 32.976 98.9752 33.066 98.8852 33.156C98.4532 33.372 98.0032 33.417 97.5352 33.291C97.2472 33.273 97.0132 33.183 96.8332 33.021C96.6712 32.859 96.5542 32.688 96.4822 32.508C96.4102 32.328 96.3472 32.121 96.2932 31.887C96.2752 31.797 96.2572 31.707 96.2392 31.617C96.2392 31.545 96.2392 31.464 96.2392 31.374V16.335C96.2392 16.227 96.2392 16.119 96.2392 16.011C96.2572 15.885 96.2752 15.759 96.2932 15.633C96.3112 15.417 96.3652 15.201 96.4552 14.985C96.6172 14.535 96.9502 14.229 97.4542 14.067C97.9582 13.905 98.5252 13.833 99.1552 13.851C99.5872 13.869 100.028 13.914 100.478 13.986C100.946 14.058 101.387 14.148 101.801 14.256C102.233 14.346 102.62 14.445 102.962 14.553C103.304 14.661 103.583 14.76 103.799 14.85ZM103.853 20.682C103.925 20.178 103.862 19.755 103.664 19.413C103.484 19.053 103.223 18.765 102.881 18.549C102.539 18.315 102.143 18.135 101.693 18.009C101.261 17.883 100.829 17.793 100.397 17.739C100.343 17.721 100.253 17.712 100.127 17.712C100.019 17.712 99.8932 17.712 99.7492 17.712C99.7492 18.288 99.7492 18.846 99.7492 19.386C99.7672 19.908 99.7672 20.475 99.7492 21.087V22.896C100.163 22.878 100.595 22.833 101.045 22.761C101.513 22.689 101.945 22.572 102.341 22.41C102.737 22.248 103.07 22.032 103.34 21.762C103.628 21.492 103.799 21.132 103.853 20.682Z" fill="white"/>
    <path d="M37 2L26.5 15.5H28L38.5 4L37 2Z" fill="white"/>
    <path d="M28 12L27 14.5C28.2 14.1 33.8333 6.66667 36.5 3C36.9 5.4 31.3333 11.6667 28.5 14.5L31 13C39 7.8 39 2.83333 38 1C26.8 3.4 26.6667 9.33333 28 12Z" fill="#06D001" stroke="#06D001" stroke-width="0.5"/>
</svg>
